<svg width="24" height="24" viewBox="0 0 24 24" fill="none" xmlns="http://www.w3.org/2000/svg">
<circle cx="12" cy="12" r="12" fill="#303030"/>
<path d="M12 8.70245C10.1751 8.70245 8.7024 10.1752 8.7024 12C8.7024 13.8248 10.1751 15.2976 12 15.2976C13.8248 15.2976 15.2975 13.8248 15.2975 12C15.2975 10.1752 13.8248 8.70245 12 8.70245ZM12 14.1432C10.8198 14.1432 9.85679 13.1801 9.85679 12C9.85679 10.8199 10.8198 9.85684 12 9.85684C13.1801 9.85684 14.1431 10.8199 14.1431 12C14.1431 13.1801 13.1801 14.1432 12 14.1432ZM15.4326 7.79888C15.0065 7.79888 14.6624 8.14295 14.6624 8.56901C14.6624 8.99507 15.0065 9.33913 15.4326 9.33913C15.8586 9.33913 16.2027 8.99668 16.2027 8.56901C16.2028 8.46784 16.183 8.36764 16.1443 8.27414C16.1057 8.18065 16.0489 8.0957 15.9774 8.02416C15.9059 7.95263 15.8209 7.8959 15.7274 7.85725C15.6339 7.81859 15.5337 7.79876 15.4326 7.79888ZM18.4278 12C18.4278 11.1125 18.4359 10.2331 18.386 9.34717C18.3362 8.31819 18.1015 7.40498 17.349 6.65254C16.595 5.89849 15.6834 5.66536 14.6544 5.61552C13.7669 5.56568 12.8874 5.57372 12.0016 5.57372C11.1141 5.57372 10.2346 5.56568 9.34873 5.61552C8.31975 5.66536 7.40653 5.9001 6.65409 6.65254C5.90005 7.40659 5.66692 8.31819 5.61708 9.34717C5.56724 10.2347 5.57528 11.1141 5.57528 12C5.57528 12.8859 5.56724 13.7669 5.61708 14.6528C5.66692 15.6818 5.90166 16.595 6.65409 17.3475C7.40814 18.1015 8.31975 18.3346 9.34873 18.3845C10.2362 18.4343 11.1157 18.4263 12.0016 18.4263C12.8891 18.4263 13.7685 18.4343 14.6544 18.3845C15.6834 18.3346 16.5966 18.0999 17.349 17.3475C18.1031 16.5934 18.3362 15.6818 18.386 14.6528C18.4375 13.7669 18.4278 12.8875 18.4278 12ZM17.013 15.7911C16.8956 16.0838 16.7541 16.3024 16.5275 16.5275C16.3008 16.7542 16.0837 16.8957 15.7911 17.013C14.9454 17.3491 12.9373 17.2735 12 17.2735C11.0626 17.2735 9.0529 17.3491 8.20721 17.0147C7.91459 16.8973 7.69593 16.7558 7.47085 16.5291C7.24415 16.3024 7.10266 16.0854 6.9853 15.7927C6.65088 14.9454 6.72644 12.9373 6.72644 12C6.72644 11.0627 6.65088 9.05295 6.9853 8.20726C7.10266 7.91464 7.24415 7.69599 7.47085 7.4709C7.69754 7.24581 7.91459 7.10272 8.20721 6.98535C9.0529 6.65093 11.0626 6.7265 12 6.7265C12.9373 6.7265 14.947 6.65093 15.7927 6.98535C16.0853 7.10272 16.304 7.2442 16.5291 7.4709C16.7558 7.69759 16.8972 7.91464 17.0146 8.20726C17.349 9.05295 17.2735 11.0627 17.2735 12C17.2735 12.9373 17.349 14.9454 17.013 15.7911Z" fill="white"/>
</svg>
