<svg width="32" height="32" viewBox="0 0 32 32" fill="none" xmlns="http://www.w3.org/2000/svg">
<g filter="url(#filter0_d_4001_16242)">
<path fill-rule="evenodd" clip-rule="evenodd" d="M4 12C4 5.37258 9.37258 0 16 0C22.6274 0 28 5.37258 28 12C28 18.6274 22.6274 24 16 24C9.37258 24 4 18.6274 4 12Z" fill="#303030"/>
<path fill-rule="evenodd" clip-rule="evenodd" d="M15.6406 9.7537L15.6658 10.1689L15.2461 10.1181C13.7184 9.92318 12.3838 9.26221 11.2507 8.15211L10.6967 7.6013L10.554 8.00805C10.2518 8.91477 10.4449 9.87234 11.0744 10.5164C11.4102 10.8723 11.3346 10.9231 10.7554 10.7113C10.554 10.6435 10.3777 10.5926 10.3609 10.6181C10.3022 10.6774 10.5036 11.4485 10.6631 11.7536C10.8813 12.1773 11.3262 12.5925 11.8131 12.8382L12.2243 13.0331L11.7375 13.0416C11.2675 13.0416 11.2507 13.0501 11.301 13.2281C11.4689 13.7789 12.132 14.3636 12.8707 14.6178L13.3911 14.7957L12.9378 15.0669C12.2663 15.4567 11.4773 15.677 10.6883 15.694C10.3106 15.7025 10 15.7364 10 15.7618C10 15.8465 11.024 16.3211 11.62 16.5075C13.4079 17.0583 15.5315 16.821 17.1263 15.8804C18.2595 15.211 19.3926 13.8806 19.9214 12.5925C20.2068 11.9061 20.4922 10.6519 20.4922 10.0503C20.4922 9.66049 20.5174 9.60964 20.9874 9.14357C21.2644 8.8724 21.5246 8.57581 21.575 8.49107C21.6589 8.33007 21.6505 8.33007 21.2224 8.47412C20.509 8.72834 20.4083 8.69445 20.7608 8.31312C21.021 8.04195 21.3316 7.55046 21.3316 7.4064C21.3316 7.38098 21.2057 7.42335 21.063 7.49961C20.9119 7.58435 20.5761 7.71146 20.3243 7.78773L19.8711 7.93179L19.4598 7.65214C19.2331 7.49961 18.9142 7.33013 18.7463 7.27929C18.3182 7.16065 17.6635 7.1776 17.2774 7.31318C16.2282 7.69451 15.5651 8.6775 15.6406 9.7537Z" fill="white"/>
</g>
<defs>
<filter id="filter0_d_4001_16242" x="0" y="0" width="32" height="32" filterUnits="userSpaceOnUse" color-interpolation-filters="sRGB">
<feFlood flood-opacity="0" result="BackgroundImageFix"/>
<feColorMatrix in="SourceAlpha" type="matrix" values="0 0 0 0 0 0 0 0 0 0 0 0 0 0 0 0 0 0 127 0" result="hardAlpha"/>
<feOffset dy="4"/>
<feGaussianBlur stdDeviation="2"/>
<feColorMatrix type="matrix" values="0 0 0 0 0 0 0 0 0 0 0 0 0 0 0 0 0 0 0.25 0"/>
<feBlend mode="normal" in2="BackgroundImageFix" result="effect1_dropShadow_4001_16242"/>
<feBlend mode="normal" in="SourceGraphic" in2="effect1_dropShadow_4001_16242" result="shape"/>
</filter>
</defs>
</svg>
